<?xml version="1.0" encoding="UTF-8" standalone="no"?><!DOCTYPE svg PUBLIC "-//W3C//DTD SVG 1.1//EN" "http://www.w3.org/Graphics/SVG/1.1/DTD/svg11.dtd"><!-- Generated by graphviz version 2.40.1 (20161225.0304)
 --><!-- Title: scalarflow Pages: 1 --><svg xmlns="http://www.w3.org/2000/svg" xmlns:xlink="http://www.w3.org/1999/xlink" width="560pt" height="144pt" viewBox="0.00 0.00 560.40 144.00">
<g id="graph0" class="graph" transform="scale(1 1) rotate(0) translate(4 140)">
<title>scalarflow</title>
<polygon fill="#ffffff" stroke="transparent" points="-4,4 -4,-140 556.3988,-140 556.3988,4 -4,4"/>
<!-- x -->
<g id="node1" class="node">
<title>x</title>
<ellipse fill="none" stroke="#000000" cx="27" cy="-95" rx="27" ry="18"/>
<text text-anchor="middle" x="27" y="-90.8" font-family="Times,serif" font-size="14.00" fill="#000000">x </text>
</g>
<!-- Exp_0 -->
<g id="node3" class="node">
<title>Exp_0</title>
<ellipse fill="none" stroke="#000000" cx="246.2876" cy="-118" rx="38.8288" ry="18"/>
<text text-anchor="middle" x="246.2876" y="-113.8" font-family="Times,serif" font-size="14.00" fill="#000000">Exp_0 </text>
</g>
<!-- x&#45;&gt;Exp_0 -->
<g id="edge1" class="edge">
<title>x-&gt;Exp_0</title>
<path fill="none" stroke="#000000" d="M53.889,-97.8203C89.8577,-101.5928 154.2334,-108.3449 198.5457,-112.9926"/>
<polygon fill="#000000" stroke="#000000" points="198.2022,-116.4757 208.5127,-114.038 198.9324,-109.5139 198.2022,-116.4757"/>
</g>
<!-- Pow_0 -->
<g id="node4" class="node">
<title>Pow_0</title>
<ellipse fill="none" stroke="#000000" cx="130.2758" cy="-72" rx="40.0529" ry="18"/>
<text text-anchor="middle" x="130.2758" y="-67.8" font-family="Times,serif" font-size="14.00" fill="#000000">Pow_0 </text>
</g>
<!-- x&#45;&gt;Pow_0 -->
<g id="edge2" class="edge">
<title>x-&gt;Pow_0</title>
<path fill="none" stroke="#000000" d="M52.7944,-89.2555C62.2118,-87.1582 73.1742,-84.7168 83.8379,-82.3419"/>
<polygon fill="#000000" stroke="#000000" points="84.91,-85.689 93.91,-80.0988 83.3883,-78.8564 84.91,-85.689"/>
</g>
<!-- y -->
<g id="node2" class="node">
<title>y</title>
<ellipse fill="none" stroke="#000000" cx="27" cy="-18" rx="27" ry="18"/>
<text text-anchor="middle" x="27" y="-13.8" font-family="Times,serif" font-size="14.00" fill="#000000">y </text>
</g>
<!-- Pow_1 -->
<g id="node5" class="node">
<title>Pow_1</title>
<ellipse fill="none" stroke="#000000" cx="130.2758" cy="-18" rx="40.0529" ry="18"/>
<text text-anchor="middle" x="130.2758" y="-13.8" font-family="Times,serif" font-size="14.00" fill="#000000">Pow_1 </text>
</g>
<!-- y&#45;&gt;Pow_1 -->
<g id="edge3" class="edge">
<title>y-&gt;Pow_1</title>
<path fill="none" stroke="#000000" d="M54.1345,-18C61.9523,-18 70.7456,-18 79.5055,-18"/>
<polygon fill="#000000" stroke="#000000" points="79.7133,-21.5001 89.7132,-18 79.7132,-14.5001 79.7133,-21.5001"/>
</g>
<!-- Multiply_0 -->
<g id="node8" class="node">
<title>Multiply_0</title>
<ellipse fill="none" stroke="#000000" cx="495.487" cy="-91" rx="56.8238" ry="18"/>
<text text-anchor="middle" x="495.487" y="-86.8" font-family="Times,serif" font-size="14.00" fill="#000000">Multiply_0 </text>
</g>
<!-- Exp_0&#45;&gt;Multiply_0 -->
<g id="edge4" class="edge">
<title>Exp_0-&gt;Multiply_0</title>
<path fill="none" stroke="#000000" d="M284.1356,-113.8993C323.2054,-109.6662 384.8667,-102.9854 431.5255,-97.93"/>
<polygon fill="#000000" stroke="#000000" points="431.9744,-101.402 441.5392,-96.8451 431.2203,-94.4427 431.9744,-101.402"/>
</g>
<!-- Add_0 -->
<g id="node6" class="node">
<title>Add_0</title>
<ellipse fill="none" stroke="#000000" cx="246.2876" cy="-64" rx="39.9734" ry="18"/>
<text text-anchor="middle" x="246.2876" y="-59.8" font-family="Times,serif" font-size="14.00" fill="#000000">Add_0 </text>
</g>
<!-- Pow_0&#45;&gt;Add_0 -->
<g id="edge5" class="edge">
<title>Pow_0-&gt;Add_0</title>
<path fill="none" stroke="#000000" d="M170.2005,-69.2469C178.6801,-68.6621 187.7326,-68.0379 196.5269,-67.4314"/>
<polygon fill="#000000" stroke="#000000" points="196.9468,-70.9109 206.6823,-66.7311 196.4652,-63.9275 196.9468,-70.9109"/>
</g>
<!-- Pow_1&#45;&gt;Add_0 -->
<g id="edge6" class="edge">
<title>Pow_1-&gt;Add_0</title>
<path fill="none" stroke="#000000" d="M160.4537,-29.9659C174.5523,-35.5561 191.5253,-42.2861 206.6431,-48.2805"/>
<polygon fill="#000000" stroke="#000000" points="205.6748,-51.6616 216.2608,-52.094 208.255,-45.1545 205.6748,-51.6616"/>
</g>
<!-- Pow_2 -->
<g id="node7" class="node">
<title>Pow_2</title>
<ellipse fill="none" stroke="#000000" cx="362.2994" cy="-68" rx="40.0529" ry="18"/>
<text text-anchor="middle" x="362.2994" y="-63.8" font-family="Times,serif" font-size="14.00" fill="#000000">Pow_2 </text>
</g>
<!-- Add_0&#45;&gt;Pow_2 -->
<g id="edge7" class="edge">
<title>Add_0-&gt;Pow_2</title>
<path fill="none" stroke="#000000" d="M286.2123,-65.3766C294.4133,-65.6593 303.1502,-65.9606 311.6712,-66.2544"/>
<polygon fill="#000000" stroke="#000000" points="311.7926,-69.7606 321.9073,-66.6073 312.0339,-62.7647 311.7926,-69.7606"/>
</g>
<!-- Pow_2&#45;&gt;Multiply_0 -->
<g id="edge8" class="edge">
<title>Pow_2-&gt;Multiply_0</title>
<path fill="none" stroke="#000000" d="M400.1093,-74.5294C411.0445,-76.4177 423.2618,-78.5275 435.2059,-80.5901"/>
<polygon fill="#000000" stroke="#000000" points="434.6906,-84.0529 445.1404,-82.3057 435.8819,-77.155 434.6906,-84.0529"/>
</g>
</g>
</svg>